<svg width="756" height="542" viewBox="0 0 756 542" fill="none" xmlns="http://www.w3.org/2000/svg">
<path d="M11.5 305.5L97 321C121.141 363.95 134.552 388.133 160 430C180.657 457.641 196.393 470.276 230 489C274.056 509.421 297.089 518.612 333 528C368.922 536.697 389.066 538.516 425 537.5C467.022 533.723 489.59 528.746 528.5 516C570.776 496.888 594.042 483.891 626.5 453.5C650.39 431.092 663.829 415.752 681.5 389C697.67 362.25 705.784 347.545 716 319.5C725.153 295.137 729.946 281.242 736 256C741.163 232.15 743.238 217.716 746.5 193.5L750 167.5C742.956 174.684 736.421 179.244 726 186.5C711.966 193.261 702.701 196.466 685.5 200L645.5 208L611 215L585 220.5L570.5 223.5C565.245 224.852 561.69 225.561 555.5 226.5C555.936 226.121 506.832 228.329 473.5 231C441.5 233 424.588 235.027 394.5 238.5C370.059 241.43 355.274 243.769 330.5 247.5C310.451 251.244 301.411 252.529 288 257C264.783 265.463 251.239 271.354 228.5 278.5C206.887 284.415 159.705 286.734 159 287.5C159 287.5 118.726 291.494 95 287.5C76.0028 284.298 62.0551 284.758 41 287.5C26.0384 294.805 11.5 305.5 11.5 305.5Z" fill="#F7B40A"/>
<path d="M270 261C231.531 277.238 206.209 282.027 164.5 284C128.927 285.683 131.724 289.254 96.5 284C75.6424 280.889 42.5 284 42.5 284L7 305.5L96.5 321.5C96.5 321.5 119 363.5 145.5 408.5C172 453.5 236.781 493.075 237 493C237.219 492.925 303.614 524.586 349.5 532.5C396.451 540.597 424.681 541.327 471.5 532.5C514.732 524.35 539.314 515.698 577 493C618.666 467.905 639.138 447.277 668.5 408.5C695.917 372.292 706.464 347.992 722.5 305.5C743.945 248.678 753 153 753 153C753 153 747.892 183.87 694 195L556 223.5C556 223.5 448.074 226.551 380 237.5C336.63 244.476 310.469 243.917 270 261Z" stroke="#F7B40A" stroke-width="5"/>
<path d="M380 261L122 319.5C156.219 393.027 180.077 423.59 227.5 467L380 261Z" fill="#F5FA07"/>
<path d="M399 261L448 514C370.825 522.335 345.961 517.213 267.5 487L399 261Z" fill="#F5FA07"/>
<path d="M415 261L644.5 409C594.194 469.617 554.213 488.646 478.5 514L415 261Z" fill="#F5FA07"/>
<path d="M431.5 261L724.5 211.5C718.201 283.413 704.098 320.91 668.5 385L431.5 261Z" fill="#F5FA07"/>
<path d="M43 283.5L79 261.136H120C120 261.136 141.853 201.698 161.5 160.636C179.88 122.223 192.651 99.402 224.5 71.1359C262.056 37.8052 279.759 28.07 328 14.1359C370.372 1.89709 404.027 -2.2518 448 1.13585C486.864 4.12986 515.299 16.4885 551 32.1359C582.224 45.821 581.545 49.6342 608 71.1359C639.119 96.4285 651.19 108.767 680.5 136.136C691.12 146.052 694.748 155.947 708.5 160.636C724.731 166.17 751.5 156.636 751.5 156.636C751.5 156.636 748.856 162.589 746.5 166C744.14 169.416 742.53 171.162 739.5 174C736.45 176.857 734.479 178.185 731 180.5C724.458 184.855 720.328 186.661 713 189.5C705.622 192.358 693.5 195 693.5 195L675.5 198.5L651 203.5L626.5 208.5L601.5 213.5L583 217.5C583 217.5 571.337 219.586 564 221.5C557.929 223.083 554.143 223.404 547 223.5C537.815 223.623 532.674 224.044 523.5 224.5C513.342 225.005 497.5 226 497.5 226L471.5 227.5L451.5 229L425.5 231.5L401 234L377 237.5L353.5 241L323 245L303.5 249.5L283 255.5L268.5 261L252 267.5L232.5 274L210.5 279L192 281.5C192 281.5 176.154 283.219 166 284C155.846 284.781 150.162 284.839 140 285.5C133.169 285.945 129.344 286.615 122.5 286.5C117.214 286.411 109 285.5 109 285.5C109 285.5 98.6859 283.572 92 283C88.1041 282.667 85.905 282.701 82 282.5C78.2898 282.309 76.2146 282.063 72.5 282C67.03 281.908 63.9665 282.281 58.5 282.5C54.0083 282.68 47 283 47 283L43 283.5Z" fill="#5AFF0C"/>
</svg>
